<svg xmlns="http://www.w3.org/2000/svg" width="28" height="28" viewBox="0 0 28 28"><defs><style>.a{fill:#ff4b54;}</style></defs><path class="a" d="M212.359,209.68a2.68,2.68,0,1,1-2.68-2.68A2.677,2.677,0,0,1,212.359,209.68Z" transform="translate(-195.68 -195.68)"/><path class="a" d="M148.263,137.254a2.665,2.665,0,0,0-1.526-1.526,4.538,4.538,0,0,0-1.493-.279c-.848-.038-1.1-.049-3.248-.049s-2.4.005-3.248.049a4.538,4.538,0,0,0-1.493.279,2.665,2.665,0,0,0-1.526,1.526,4.538,4.538,0,0,0-.279,1.493c-.038.848-.049,1.1-.049,3.248s.011,2.4.049,3.248a4.395,4.395,0,0,0,.279,1.493,2.665,2.665,0,0,0,1.526,1.526,4.538,4.538,0,0,0,1.493.279c.848.038,1.1.049,3.248.049s2.4-.005,3.248-.049a4.394,4.394,0,0,0,1.493-.279,2.655,2.655,0,0,0,1.526-1.526,4.538,4.538,0,0,0,.279-1.493c.038-.848.049-1.1.049-3.248s-.005-2.4-.049-3.248A4.538,4.538,0,0,0,148.263,137.254ZM142,146.124A4.129,4.129,0,1,1,146.124,142,4.129,4.129,0,0,1,142,146.124Zm4.293-7.454a.963.963,0,1,1,.963-.963A.964.964,0,0,1,146.288,138.67Z" transform="translate(-127.995 -127.995)"/><path class="a" d="M14,0A14,14,0,1,0,28,14,14,14,0,0,0,14,0Zm7.99,17.314a5.969,5.969,0,0,1-.372,1.952,4.1,4.1,0,0,1-2.352,2.352,5.909,5.909,0,0,1-1.952.372c-.859.038-1.132.049-3.314.049s-2.455-.011-3.314-.049a5.969,5.969,0,0,1-1.952-.372,4.146,4.146,0,0,1-2.352-2.352,5.909,5.909,0,0,1-.372-1.952c-.038-.859-.049-1.132-.049-3.314s.011-2.455.049-3.314a5.969,5.969,0,0,1,.372-1.952A4.146,4.146,0,0,1,8.734,6.382a5.939,5.939,0,0,1,1.952-.372c.859-.038,1.132-.049,3.314-.049s2.455.011,3.314.049a5.969,5.969,0,0,1,1.952.372,4.146,4.146,0,0,1,2.352,2.352,5.939,5.939,0,0,1,.372,1.952c.038.859.049,1.132.049,3.314S22.028,16.455,21.99,17.314Z"/></svg>