<svg xmlns="http://www.w3.org/2000/svg" width="29" height="29.084" viewBox="0 0 29 29.084"><defs><style>.a{fill:#ff4b54;stroke:rgba(0,0,0,0);stroke-miterlimit:10;}</style></defs><g transform="translate(0.5 0.5)"><path class="a" d="M11.813,28h0A13.981,13.981,0,0,1,3.4,23.282,14.1,14.1,0,0,1,14,0a13.864,13.864,0,0,1,9.9,4.127,14.146,14.146,0,0,1,.7,19.155A13.975,13.975,0,0,1,16.189,28V18.19h3.246l.005-.033h.011l.62-4.071H16.187V11.443c0-.091,0-.182.011-.272a1.992,1.992,0,0,1,2.257-1.863h1.759V9.245h.02V5.778A21.586,21.586,0,0,0,17.1,5.5c-3.311,0-5.288,2.048-5.288,5.48v3.1H8.257v4.071h.021v.033h3.534V28Z" transform="translate(0 0)"/></g></svg>