<svg width="309" height="189" viewBox="0 0 309 189" fill="none" xmlns="http://www.w3.org/2000/svg">
<g clip-path="url(#clip0)">
<path d="M74.864 12.2V29H71.744V14.816H68.192V12.2H74.864ZM83.8606 11.96C86.1646 11.96 87.9486 12.68 89.2126 14.12C90.4926 15.56 91.1326 17.624 91.1326 20.312C91.1326 22.2 90.7886 23.816 90.1006 25.16C89.4126 26.488 88.4446 27.504 87.1966 28.208C85.9646 28.896 84.5326 29.24 82.9006 29.24C82.0366 29.24 81.2206 29.152 80.4526 28.976C79.7006 28.784 79.0446 28.512 78.4846 28.16L79.6366 25.808C80.4686 26.352 81.5326 26.624 82.8286 26.624C84.4446 26.624 85.7086 26.128 86.6206 25.136C87.5326 24.144 87.9886 22.712 87.9886 20.84V20.816C87.4926 21.392 86.8606 21.832 86.0926 22.136C85.3246 22.424 84.4606 22.568 83.5006 22.568C82.3966 22.568 81.4046 22.36 80.5246 21.944C79.6446 21.512 78.9566 20.904 78.4606 20.12C77.9646 19.336 77.7166 18.432 77.7166 17.408C77.7166 16.32 77.9886 15.368 78.5326 14.552C79.0766 13.72 79.8126 13.08 80.7406 12.632C81.6686 12.184 82.7086 11.96 83.8606 11.96ZM84.1006 20.12C85.1086 20.12 85.9246 19.848 86.5486 19.304C87.1886 18.76 87.5086 18.072 87.5086 17.24C87.5086 16.424 87.1966 15.752 86.5726 15.224C85.9646 14.68 85.1166 14.408 84.0286 14.408C83.0526 14.408 82.2606 14.672 81.6526 15.2C81.0446 15.712 80.7406 16.4 80.7406 17.264C80.7406 18.144 81.0446 18.84 81.6526 19.352C82.2606 19.864 83.0766 20.12 84.1006 20.12ZM100.252 29.24C98.9075 29.24 97.7075 28.904 96.6515 28.232C95.5955 27.544 94.7635 26.552 94.1555 25.256C93.5475 23.944 93.2435 22.392 93.2435 20.6C93.2435 18.808 93.5475 17.264 94.1555 15.968C94.7635 14.656 95.5955 13.664 96.6515 12.992C97.7075 12.304 98.9075 11.96 100.252 11.96C101.596 11.96 102.796 12.304 103.852 12.992C104.924 13.664 105.764 14.656 106.372 15.968C106.98 17.264 107.284 18.808 107.284 20.6C107.284 22.392 106.98 23.944 106.372 25.256C105.764 26.552 104.924 27.544 103.852 28.232C102.796 28.904 101.596 29.24 100.252 29.24ZM100.252 26.528C101.452 26.528 102.396 26.032 103.084 25.04C103.788 24.048 104.14 22.568 104.14 20.6C104.14 18.632 103.788 17.152 103.084 16.16C102.396 15.168 101.452 14.672 100.252 14.672C99.0675 14.672 98.1235 15.168 97.4195 16.16C96.7315 17.152 96.3875 18.632 96.3875 20.6C96.3875 22.568 96.7315 24.048 97.4195 25.04C98.1235 26.032 99.0675 26.528 100.252 26.528ZM124.041 16.04C125.289 16.04 126.401 16.312 127.377 16.856C128.369 17.4 129.145 18.168 129.705 19.16C130.265 20.152 130.545 21.296 130.545 22.592C130.545 23.888 130.265 25.04 129.705 26.048C129.145 27.04 128.369 27.808 127.377 28.352C126.401 28.896 125.289 29.168 124.041 29.168C122.313 29.168 120.945 28.592 119.937 27.44V33.656H116.937V16.184H119.793V17.864C120.289 17.256 120.897 16.8 121.617 16.496C122.353 16.192 123.161 16.04 124.041 16.04ZM123.705 26.6C124.809 26.6 125.713 26.232 126.417 25.496C127.137 24.76 127.497 23.792 127.497 22.592C127.497 21.392 127.137 20.424 126.417 19.688C125.713 18.952 124.809 18.584 123.705 18.584C122.985 18.584 122.337 18.752 121.761 19.088C121.185 19.408 120.729 19.872 120.393 20.48C120.057 21.088 119.889 21.792 119.889 22.592C119.889 23.392 120.057 24.096 120.393 24.704C120.729 25.312 121.185 25.784 121.761 26.12C122.337 26.44 122.985 26.6 123.705 26.6ZM141.128 29L137.84 24.56L134.528 29H131.216L136.208 22.496L131.432 16.184H134.768L137.912 20.384L141.056 16.184H144.296L139.496 22.448L144.512 29H141.128Z" fill="#FF4B54"/>
<path d="M246.53 120.6V136H243.67V122.998H240.414V120.6H246.53ZM260.739 133.58V136H249.387V134.086L255.503 128.278C256.192 127.618 256.654 127.046 256.889 126.562C257.138 126.063 257.263 125.572 257.263 125.088C257.263 124.369 257.021 123.819 256.537 123.438C256.053 123.057 255.341 122.866 254.403 122.866C252.833 122.866 251.631 123.401 250.795 124.472L248.793 122.932C249.394 122.125 250.201 121.502 251.213 121.062C252.239 120.607 253.383 120.38 254.645 120.38C256.317 120.38 257.651 120.776 258.649 121.568C259.646 122.36 260.145 123.438 260.145 124.802C260.145 125.638 259.969 126.423 259.617 127.156C259.265 127.889 258.59 128.725 257.593 129.664L253.479 133.58H260.739ZM268.749 136.22C267.517 136.22 266.417 135.912 265.449 135.296C264.481 134.665 263.718 133.756 263.161 132.568C262.604 131.365 262.325 129.943 262.325 128.3C262.325 126.657 262.604 125.242 263.161 124.054C263.718 122.851 264.481 121.942 265.449 121.326C266.417 120.695 267.517 120.38 268.749 120.38C269.981 120.38 271.081 120.695 272.049 121.326C273.032 121.942 273.802 122.851 274.359 124.054C274.916 125.242 275.195 126.657 275.195 128.3C275.195 129.943 274.916 131.365 274.359 132.568C273.802 133.756 273.032 134.665 272.049 135.296C271.081 135.912 269.981 136.22 268.749 136.22ZM268.749 133.734C269.849 133.734 270.714 133.279 271.345 132.37C271.99 131.461 272.313 130.104 272.313 128.3C272.313 126.496 271.99 125.139 271.345 124.23C270.714 123.321 269.849 122.866 268.749 122.866C267.664 122.866 266.798 123.321 266.153 124.23C265.522 125.139 265.207 126.496 265.207 128.3C265.207 130.104 265.522 131.461 266.153 132.37C266.798 133.279 267.664 133.734 268.749 133.734ZM290.556 124.12C291.7 124.12 292.719 124.369 293.614 124.868C294.523 125.367 295.234 126.071 295.748 126.98C296.261 127.889 296.518 128.938 296.518 130.126C296.518 131.314 296.261 132.37 295.748 133.294C295.234 134.203 294.523 134.907 293.614 135.406C292.719 135.905 291.7 136.154 290.556 136.154C288.972 136.154 287.718 135.626 286.794 134.57V140.268H284.044V124.252H286.662V125.792C287.116 125.235 287.674 124.817 288.334 124.538C289.008 124.259 289.749 124.12 290.556 124.12ZM290.248 133.8C291.26 133.8 292.088 133.463 292.734 132.788C293.394 132.113 293.724 131.226 293.724 130.126C293.724 129.026 293.394 128.139 292.734 127.464C292.088 126.789 291.26 126.452 290.248 126.452C289.588 126.452 288.994 126.606 288.466 126.914C287.938 127.207 287.52 127.633 287.212 128.19C286.904 128.747 286.75 129.393 286.75 130.126C286.75 130.859 286.904 131.505 287.212 132.062C287.52 132.619 287.938 133.052 288.466 133.36C288.994 133.653 289.588 133.8 290.248 133.8ZM306.219 136L303.205 131.93L300.169 136H297.133L301.709 130.038L297.331 124.252H300.389L303.271 128.102L306.153 124.252H309.123L304.723 129.994L309.321 136H306.219Z" fill="#FF4B54"/>
<path d="M0 69H202V189H0V69Z" fill="#88C1EA"/>
<path d="M88.0061 105.904H99.3351L98.8226 109.204H91.6676L91.0436 113.138H97.9212L97.4353 116.226H90.5438L89.9059 120.25H97.3384L96.8069 123.55H85.1993L88.0061 105.904Z" fill="white"/>
<path d="M105.413 112.392L103.653 123.543H99.5892L102.391 105.905H106.537L110.835 117.056L112.611 105.905H116.674L113.859 123.543H109.728L105.413 112.392Z" fill="white"/>
<path d="M122.06 109.148H117.4L117.914 105.904H131.416L130.884 109.148H126.238L123.95 123.543H119.763L122.06 109.148Z" fill="white"/>
<path d="M139.288 105.904C143.144 105.904 145.56 107.78 144.987 111.375L144.806 112.508C144.676 113.535 144.258 114.512 143.596 115.337C142.933 116.163 142.049 116.809 141.034 117.208L143.373 123.539H138.88L137.037 117.886H134.91L133.995 123.539H129.835L132.636 105.901L139.288 105.904ZM136.334 108.978L135.377 114.944H137.734C138.456 114.979 139.164 114.747 139.708 114.299C140.252 113.851 140.589 113.222 140.647 112.544L140.842 111.332C140.936 111.036 140.949 110.722 140.881 110.42C140.813 110.117 140.665 109.836 140.451 109.601C140.237 109.367 139.964 109.186 139.657 109.077C139.349 108.967 139.018 108.932 138.692 108.974L136.334 108.978Z" fill="white"/>
<path d="M148.682 105.904H160.011L159.497 109.204H152.342L151.718 113.138H158.596L158.111 116.226H151.218L150.58 120.25H158.013L157.481 123.55H145.875L148.682 105.904Z" fill="white"/>
<path d="M90.7788 131.371H86.12L86.6335 128.128H100.136L99.604 131.371H94.958L92.6701 145.771H88.4824L90.7788 131.371Z" fill="white"/>
<path d="M100.056 133.808C100.68 129.908 103.842 127.868 108.03 127.868C112.245 127.868 114.755 129.912 114.145 133.808L113.147 140.087C112.523 143.995 109.361 146.027 105.145 146.027C100.93 146.027 98.4336 143.994 99.0577 140.087L100.056 133.808ZM103.352 139.369C103.047 141.324 103.458 142.969 105.64 142.969C107.789 142.969 108.745 141.327 109.05 139.369L109.826 134.523C110.133 132.583 109.72 130.942 107.538 130.942C106.714 130.909 105.909 131.181 105.294 131.699C104.68 132.218 104.306 132.941 104.251 133.716L103.352 139.369Z" fill="white"/>
<path d="M118.13 128.128H124.721C128.854 128.128 131.35 130.316 130.767 133.912L129.783 140.087C129.173 143.995 126.053 145.767 121.916 145.767H115.324L118.13 128.128ZM126.478 134.589C126.74 132.908 126.311 131.202 124.064 131.202H121.818L119.988 142.692H122.234C122.641 142.727 123.052 142.685 123.442 142.57C123.832 142.456 124.194 142.269 124.507 142.022C124.82 141.776 125.078 141.473 125.267 141.132C125.455 140.791 125.57 140.418 125.605 140.035L126.478 134.589Z" fill="white"/>
<path d="M133.239 133.808C133.863 129.908 137.024 127.868 141.213 127.868C145.427 127.868 147.938 129.912 147.328 133.808L146.33 140.087C145.706 143.995 142.545 146.027 138.328 146.027C134.112 146.027 131.617 143.994 132.241 140.087L133.239 133.808ZM136.535 139.369C136.23 141.324 136.641 142.969 138.823 142.969C140.973 142.969 141.928 141.327 142.235 139.369L143.011 134.523C143.316 132.583 142.904 130.942 140.723 130.942C139.898 130.909 139.093 131.181 138.479 131.699C137.865 132.218 137.491 132.941 137.436 133.716L136.535 139.369Z" fill="white"/>
<path d="M153.141 146.027C151.246 146.053 149.361 145.771 147.567 145.193L148.621 141.975C150.022 142.413 151.485 142.649 152.961 142.675C154.981 142.675 156.345 142.259 156.345 140.513C156.345 139.013 154.736 138.924 151.852 137.804C151.119 137.554 150.494 137.082 150.078 136.461C149.661 135.841 149.475 135.108 149.55 134.378C149.55 130.769 152.226 127.865 156.733 127.865C158.401 127.841 160.062 128.065 161.655 128.529L160.657 131.799C159.389 131.429 158.073 131.227 156.747 131.199C154.861 131.199 153.626 131.954 153.626 133.439C153.626 134.259 154.111 134.728 155.262 135.106L157.162 135.717C159.367 136.435 160.505 137.58 160.505 139.807C160.505 143.59 158.341 146.027 153.141 146.027Z" fill="white"/>
<path d="M48.631 100.108L48.7426 100.96C48.7663 101.147 48.7502 101.337 48.6955 101.518C48.6407 101.699 48.5484 101.869 48.4236 102.016L46.9257 103.802C46.7726 103.984 46.5749 104.129 46.3495 104.223L45.2257 104.692C44.9837 104.793 44.774 104.952 44.6175 105.153L43.767 106.241C43.6758 106.358 43.6042 106.488 43.5544 106.625L40.4116 115.336C40.3533 115.497 40.3264 115.666 40.332 115.836L40.5839 124.01C40.5918 124.266 40.6729 124.515 40.8186 124.731C40.9644 124.948 41.1694 125.123 41.4121 125.239L44.9822 126.939C45.1721 127.029 45.3396 127.156 45.4738 127.311C45.6081 127.466 45.7061 127.646 45.7614 127.839L46.0804 128.981C46.1666 129.285 46.3568 129.553 46.6217 129.744C46.8866 129.936 47.2114 130.04 47.5455 130.04V130.04C47.7583 130.04 47.9687 130.082 48.1631 130.163C48.3576 130.245 48.5316 130.364 48.674 130.513C48.8163 130.661 48.9237 130.837 48.9892 131.027C49.0547 131.218 49.0768 131.419 49.0541 131.618L48.2546 138.585C48.2286 138.813 48.1442 139.032 48.009 139.223L47.6678 139.703C47.493 139.949 47.4041 140.241 47.4137 140.537L48.0069 158.89C48.0191 159.262 48.1858 159.616 48.4714 159.874C48.7569 160.132 49.1385 160.275 49.5347 160.272L63.6332 160.177C64.0278 160.175 64.4059 160.028 64.6872 159.768C64.9686 159.507 65.1308 159.154 65.1397 158.783L65.2396 154.442C65.2485 154.081 65.4023 153.737 65.6699 153.479C65.9376 153.221 66.2994 153.068 66.6824 153.05L69.5252 152.919C69.7621 152.908 69.9931 152.845 70.1995 152.735C70.406 152.626 70.5821 152.472 70.7138 152.286L81.4517 137.16C81.652 136.878 81.7386 136.538 81.6961 136.201C81.6536 135.865 81.4848 135.553 81.2199 135.323L80.1015 134.352C79.816 134.105 79.6424 133.763 79.6166 133.399L79.421 130.584C79.3966 130.234 79.2358 129.905 78.9693 129.659L77.7211 128.51C77.4514 128.262 77.2903 127.927 77.2693 127.573L76.996 122.727L78.0166 122.114L79.8494 112.763C79.9083 112.463 79.8629 112.153 79.7198 111.879L77.9231 108.425C77.8035 108.194 77.6198 107.998 77.3915 107.857C77.1632 107.716 76.8987 107.636 76.626 107.625L75.0366 107.561C74.674 107.547 74.329 107.41 74.0642 107.177C73.7995 106.944 73.6326 106.628 73.5939 106.289L73.4015 104.605C73.3775 104.397 73.305 104.196 73.1889 104.017L71.7588 101.805C71.6479 101.634 71.4999 101.486 71.3245 101.373C71.149 101.259 70.9499 101.181 70.7403 101.144L64.389 100.034L64.186 99.306L59.6548 99.537C59.3774 99.5513 59.1012 99.4935 58.8564 99.37L55.9093 97.887C55.6139 97.7384 55.2746 97.6857 54.944 97.737L49.8908 98.526C49.504 98.5853 49.1567 98.7832 48.9218 99.0781C48.6869 99.3731 48.5827 99.7422 48.631 100.108Z" fill="white"/>
<path d="M0 56H202" stroke="#FF4B54" stroke-width="2"/>
<path d="M217.377 69V189" stroke="#FF4B54" stroke-width="2"/>
</g>
<defs>
<clipPath id="clip0">
<rect width="309" height="189" fill="white"/>
</clipPath>
</defs>
</svg>
